Coordinates
version=1
nRows=13
nColumns=40
inDegrees=yes

Units are S.I. units (second, meters, Newtons, ...)
Angles are in degrees.

endheader
time	pelvis_tilt	pelvis_list	pelvis_rotation	pelvis_tx	pelvis_ty	pelvis_tz	hip_flexion_r	hip_adduction_r	hip_rotation_r	knee_angle_r	knee_angle_r_beta	ankle_angle_r	subtalar_angle_r	mtp_angle_r	hip_flexion_l	hip_adduction_l	hip_rotation_l	knee_angle_l	knee_angle_l_beta	ankle_angle_l	subtalar_angle_l	mtp_angle_l	lumbar_extension	lumbar_bending	lumbar_rotation	arm_flex_r	arm_add_r	arm_rot_r	elbow_flex_r	pro_sup_r	wrist_flex_r	wrist_dev_r	arm_flex_l	arm_add_l	arm_rot_l	elbow_flex_l	pro_sup_l	wrist_flex_l	wrist_dev_l
     20.12614286	     -4.66333813	     -4.57713259	      2.49014299	      0.82231016	      0.93187529	      0.50475015	     11.30690165	      3.68355491	    -16.32308716	     15.48303533	     15.48303533	     10.50014140	      1.58395759	     -2.56706422	     32.56300388	    -11.04186339	      0.93848757	     45.68282042	     45.68282042	     10.48053354	    -17.65401594	     11.38949220	    -10.44946393	      7.27345590	      2.01015233	     25.27724643	    -21.31879308	    -10.43376138	     70.71004124	     45.08624061	      0.00000000	      0.00000000	     -3.77993913	     -7.48185989	     -4.79582451	     26.88881143	     45.88350454	      0.00000000	      0.00000000
     20.13978571	     -4.77899958	     -4.47701811	      2.73788711	      0.82063618	      0.93171842	      0.50424112	     10.92818775	      3.59271761	    -16.38564306	     15.24100293	     15.24100293	     10.74821917	      1.52296315	     -2.68059457	     32.84717975	    -10.48670057	      1.02021946	     41.75619915	     41.75619915	     10.64741701	    -16.89026132	     11.38682740	    -10.46433474	      7.24422626	      2.12119649	     26.61553500	    -21.33147502	    -10.46284864	     72.08857903	     45.05182923	      0.00000000	      0.00000000	     -4.74919145	     -7.35078031	     -4.49933199	     26.76240374	     45.81463277	      0.00000000	      0.00000000
     20.15342857	     -5.01796406	     -4.52662977	      3.01412791	      0.81888580	      0.93110150	      0.50359098	     10.75328230	      3.62441295	    -16.51812131	     15.11373049	     15.11373049	     11.03384332	      1.42020299	     -2.80989913	     33.28820536	    -10.06402514	      1.18023477	     37.97793464	     37.97793464	     10.91485294	    -15.64244262	     11.52299018	    -10.28504563	      7.42414577	      2.39589989	     27.95809448	    -21.55071440	    -10.54144710	     73.13930656	     45.02782001	      0.00000000	      0.00000000	     -5.55633501	     -7.10413609	     -4.34959714	     26.63895722	     45.77361530	      0.00000000	      0.00000000
     20.16707143	     -4.97839890	     -4.41467335	      3.24145158	      0.81747701	      0.93096014	      0.50293587	     10.18901041	      3.51447261	    -16.61545824	     14.88555559	     14.88555559	     11.34416720	      1.50048469	     -2.96059612	     33.10629243	     -9.51562431	      1.20899389	     33.97662459	     33.97662459	     10.95606324	    -14.33413161	     11.33832631	    -10.46787804	      7.35066332	      2.15924489	     29.21375150	    -21.07271422	    -10.30176563	     75.30436056	     44.95836012	      0.00000000	      0.00000000	     -6.63742038	     -7.05129821	     -3.99589550	     26.63552350	     45.69200862	      0.00000000	      0.00000000
     20.18071429	     -5.02717910	     -4.45850049	      3.49998850	      0.81606210	      0.93045415	      0.50215066	      9.78762639	      3.53556095	    -16.80873977	     14.77775286	     14.77775286	     11.68229721	      1.56287753	     -3.14064975	     33.09098860	     -9.12819643	      1.25138755	     30.32480159	     30.32480159	     10.93757564	    -12.76327440	     11.11714662	    -10.48637973	      7.50286627	      2.14199835	     30.32490549	    -20.88201239	    -10.05860716	     77.26909537	     44.89685051	      0.00000000	      0.00000000	     -7.57898779	     -6.93321266	     -3.60463139	     26.80798314	     45.60670862	      0.00000000	      0.00000000
     20.19435714	     -5.08027384	     -4.57927748	      3.74170409	      0.81474742	      0.92979117	      0.50132344	      9.37283577	      3.62905474	    -17.06185867	     14.64512777	     14.64512777	     12.03030062	      1.79399796	     -3.32435807	     33.08158344	     -8.85948916	      1.21399125	     27.00693609	     27.00693609	     10.64126527	    -11.08057182	     10.41001856	    -10.53504269	      7.73465670	      2.17392509	     31.16889961	    -20.81524432	     -9.58663330	     80.00801644	     44.81405266	      0.00000000	      0.00000000	     -8.63278778	     -6.90188144	     -2.65473332	     27.52679224	     45.42850657	      0.00000000	      0.00000000
     20.20800000	     -5.10170472	     -4.60534888	      3.94117639	      0.81362190	      0.92921370	      0.50046146	      8.97257521	      3.63465570	    -17.09903817	     14.63171486	     14.63171486	     12.41711718	      1.71412502	     -3.45760169	     32.97171615	     -8.52106091	      1.05252253	     24.07168015	     24.07168015	     10.51121297	     -9.55833587	     10.74429905	    -10.47699873	      7.78654137	      2.34379338	     32.15741553	    -20.59711884	     -9.48411453	     81.09079828	     44.78495978	      0.00000000	      0.00000000	     -9.23227287	     -6.79090552	     -2.36075335	     27.47368023	     45.37223060	      0.00000000	      0.00000000
     20.22164286	     -5.02884656	     -4.72798310	      4.14775886	      0.81272424	      0.92863635	      0.49958392	      8.41355460	      3.75594247	    -17.23843490	     14.53545390	     14.53545390	     12.82699594	      1.82134729	     -3.55341333	     32.85789722	     -8.33432309	      0.75911732	     21.77563974	     21.77563974	     10.33887082	     -8.13716267	     10.97480372	    -10.53244344	      7.95487898	      2.23969603	     33.12007317	    -20.11219569	     -9.13609819	     82.89067949	     44.72927095	      0.00000000	      0.00000000	     -9.95835529	     -6.71432154	     -1.85725240	     27.52829530	     45.28205803	      0.00000000	      0.00000000
     20.23528571	     -4.96941336	     -4.79875015	      4.31013713	      0.81204916	      0.92805969	      0.49862994	      7.84402583	      3.82838758	    -17.32427596	     14.42696811	     14.42696811	     13.25808440	      1.88712937	     -3.62787633	     32.73056703	     -8.13464084	      0.27289419	     19.98642302	     19.98642302	     10.01538436	     -7.04595058	     11.24932223	    -10.52106165	      8.03747959	      2.23394733	     33.90803562	    -19.66024079	     -8.77573667	     84.40808058	     44.68097198	      0.00000000	      0.00000000	    -10.56108876	     -6.66203460	     -1.44494933	     27.58290138	     45.20971868	      0.00000000	      0.00000000
     20.24892857	     -4.90345201	     -4.88796200	      4.47267862	      0.81158453	      0.92744383	      0.49759375	      7.24563532	      3.92107391	    -17.36947428	     14.30482166	     14.30482166	     13.68070366	      1.95560583	     -3.68903963	     32.65148048	     -7.97049905	     -0.26184826	     18.83803035	     18.83803035	      9.58416657	     -6.34552984	     11.43541273	    -10.43595973	      8.15735391	      2.23510425	     34.60879457	    -19.19679936	     -8.43445327	     85.71254175	     44.63803475	      0.00000000	      0.00000000	    -11.03039706	     -6.59832322	     -1.13446651	     27.61091163	     45.15589450	      0.00000000	      0.00000000
     20.26257143	     -4.79038902	     -4.98641546	      4.60443015	      0.81140582	      0.92682766	      0.49656314	      6.53469535	      4.04636075	    -17.42039271	     14.09830781	     14.09830781	     14.12879718	      2.10183993	     -3.70555983	     32.52788744	     -7.86998823	     -0.86440405	     18.26577563	     18.26577563	      9.06452915	     -5.96109670	     11.36989123	    -10.40812762	      8.23112566	      2.16152536	     35.16648054	    -18.63816261	     -7.94186246	     87.25109144	     44.58478059	      0.00000000	      0.00000000	    -11.51438003	     -6.57615134	     -0.75052555	     27.67786180	     45.09217097	      0.00000000	      0.00000000
     20.27621429	     -4.66687382	     -5.09333181	      4.71678882	      0.81149468	      0.92614777	      0.49542779	      5.78138877	      4.18356384	    -17.43154405	     13.86869225	     13.86869225	     14.58677450	      2.24545441	     -3.70007942	     32.38777223	     -7.80791865	     -1.45667945	     18.19377128	     18.19377128	      8.39604071	     -5.91345074	     11.03111724	    -10.31971835	      8.31784024	      2.15870175	     35.62292168	    -18.15319513	     -7.44804692	     88.65383168	     44.53701920	      0.00000000	      0.00000000	    -11.88777232	     -6.56845042	     -0.36307845	     27.80542785	     45.03122742	      0.00000000	      0.00000000
     20.28985714	     -4.53775398	     -5.21059286	      4.76321696	      0.81189594	      0.92532032	      0.49427501	      5.04210508	      4.32006194	    -17.38107769	     13.72547284	     13.72547284	     15.14026760	      2.42433647	     -3.50970608	     32.10582850	     -7.79798202	     -1.99462209	     18.30922113	     18.30922113	      6.82544239	     -6.34782692	      8.60021464	    -10.17844455	      8.38457646	      2.58507489	     35.56216823	    -18.31473655	     -6.84354715	     90.28871333	     44.52795574	      0.00000000	      0.00000000	    -12.29055215	     -6.90311194	      1.26758261	     28.64750607	     44.81706400	      0.00000000	      0.00000000
